<svg width="34" height="34" viewBox="0 0 34 34" fill="none" xmlns="http://www.w3.org/2000/svg">
<path fill-rule="evenodd" clip-rule="evenodd" d="M24.4375 14.875C24.4375 16.1308 24.1902 17.3742 23.7096 18.5344C23.2291 19.6946 22.5247 20.7487 21.6367 21.6367C20.7488 22.5247 19.6946 23.229 18.5344 23.7096C17.3743 24.1902 16.1308 24.4375 14.875 24.4375C13.6193 24.4375 12.3758 24.1902 11.2156 23.7096C10.0554 23.229 9.00128 22.5247 8.11332 21.6367C7.22536 20.7487 6.52099 19.6946 6.04043 18.5344C5.55987 17.3742 5.31253 16.1308 5.31253 14.875C5.31253 12.3389 6.32 9.9066 8.11332 8.11329C9.90663 6.31997 12.3389 5.3125 14.875 5.3125C17.4112 5.3125 19.8434 6.31997 21.6367 8.11329C23.43 9.9066 24.4375 12.3389 24.4375 14.875ZM22.695 24.9475C20.1331 26.9364 16.9094 27.8743 13.6804 27.57C10.4513 27.2658 7.45951 25.7424 5.31412 23.31C3.16873 20.8775 2.031 17.7189 2.13254 14.4771C2.23408 11.2353 3.56726 8.15406 5.86068 5.86065C8.15409 3.56723 11.2353 2.23405 14.4771 2.13251C17.7189 2.03097 20.8775 3.1687 23.31 5.31409C25.7424 7.45948 27.2659 10.4512 27.5701 13.6803C27.8743 16.9094 26.9365 20.133 24.9475 22.695L30.8763 28.6237C31.0329 28.7697 31.1585 28.9456 31.2456 29.1411C31.3327 29.3366 31.3795 29.5476 31.3833 29.7616C31.3871 29.9756 31.3477 30.1882 31.2675 30.3866C31.1874 30.5851 31.0681 30.7654 30.9167 30.9167C30.7654 31.068 30.5851 31.1873 30.3867 31.2675C30.1882 31.3477 29.9757 31.387 29.7617 31.3833C29.5477 31.3795 29.3366 31.3326 29.1411 31.2455C28.9456 31.1584 28.7697 31.0328 28.6238 30.8762L22.695 24.9475Z" fill="white"/>
</svg>
